<?xml version="1.0" encoding="iso-8859-1"?>
<!-- Uploaded to: SVG Repo, www.svgrepo.com, Generator: SVG Repo Mixer Tools -->
<svg fill="#74ACDF" height="800px" width="800px" version="1.1" id="Layer_1" xmlns="http://www.w3.org/2000/svg" xmlns:xlink="http://www.w3.org/1999/xlink" 
	 viewBox="0 0 512.003 512.003" xml:space="preserve">
<g>
	<g>
		<path d="M479.306,63.149l26.391-26.391c8.409-8.409,8.409-22.041,0-30.45c-8.409-8.409-22.041-8.409-30.45,0l-26.391,26.391
			L422.917,6.76c-8.409-8.409-22.993-8.364-31.4,0.043l-68.524,68.524l-5.076-5.076c-8.409-8.409-22.041-8.409-30.45,0
			c-8.409,8.409-8.409,22.041,0,30.45l5.076,5.076L36.58,361.741c-3.416,3.416-5.359,8.11-5.93,12.909l-10.005,86.256L6.307,475.245
			c-8.409,8.409-8.409,22.041,0,30.45c8.409,8.409,22.041,8.409,30.45,0l13.327-13.327l87.667-10.618
			c4.799-0.571,9.094-2.911,12.51-6.327l255.962-255.962l15.226,15.226L274.272,381.863c-8.409,8.409-8.409,22.041,0,30.45
			s22.041,8.409,30.45,0l162.402-162.402c8.409-8.409,8.409-22.041,0-30.45l-30.45-30.45l68.524-68.524
			c8.409-8.409,9.25-22.195,0.841-30.604L479.306,63.149z M65.648,447.15l5.163-43.414l38.25,38.25L65.648,447.15z M146.379,418.404
			l-52.781-52.781l229.395-229.393l52.781,52.781L146.379,418.404z M406.224,158.56l-52.781-52.781l53.796-53.796l52.781,52.781
			L406.224,158.56z"/>
	</g>
</g>
</svg>